<?xml version="1.0" standalone="no"?>
<!DOCTYPE svg PUBLIC "-//W3C//DTD SVG 20010904//EN"
 "http://www.w3.org/TR/2001/REC-SVG-20010904/DTD/svg10.dtd">
<svg version="1.0" xmlns="http://www.w3.org/2000/svg"
 width="64.000000pt" height="64.000000pt" viewBox="0 0 64.000000 64.000000"
 preserveAspectRatio="xMidYMid meet">
<metadata>
Created by potrace 1.15, written by Peter Selinger 2001-2017
</metadata>
<g transform="translate(0.000000,64.000000) scale(0.100000,-0.100000)"
fill="#000000" stroke="none">
<path d="M252 567 c-29 -29 -52 -60 -52 -68 0 -24 36 -52 60 -46 15 4 20 0 20
-14 0 -18 -9 -19 -120 -19 l-120 0 0 -170 0 -170 280 0 280 0 0 170 0 170
-120 0 c-111 0 -120 1 -120 19 0 14 5 18 20 14 24 -6 60 22 60 46 0 21 -100
121 -121 121 -8 0 -38 -24 -67 -53z m113 -27 c21 -22 36 -43 32 -47 -4 -4 -13
-1 -19 5 -32 32 -38 14 -38 -123 0 -128 -1 -135 -20 -135 -19 0 -20 7 -20 135
0 137 -6 155 -38 123 -6 -6 -15 -9 -19 -5 -6 7 64 87 77 87 3 0 23 -18 45 -40z
m-85 -230 l0 -90 40 0 40 0 0 90 0 91 108 -3 107 -3 0 -145 0 -145 -255 0
-255 0 -3 134 c-1 74 0 141 2 148 4 10 33 13 111 13 l105 0 0 -90z"/>
</g>
</svg>
