<?xml version="1.0" standalone="no"?>
<!DOCTYPE svg PUBLIC "-//W3C//DTD SVG 20010904//EN"
 "http://www.w3.org/TR/2001/REC-SVG-20010904/DTD/svg10.dtd">
<svg version="1.0" xmlns="http://www.w3.org/2000/svg"
 width="100.000000pt" height="100.000000pt" viewBox="0 0 100.000000 100.000000"
 preserveAspectRatio="xMidYMid meet">
<metadata>
Created by potrace 1.15, written by Peter Selinger 2001-2017
</metadata>
<g transform="translate(0.000000,100.000000) scale(0.100000,-0.100000)"
fill="#000000" stroke="none">
<path d="M452 840 l-32 -39 -41 14 c-69 25 -76 21 -90 -39 l-12 -53 -54 -13
c-61 -13 -57 -3 -38 -101 7 -33 4 -39 -29 -64 -45 -35 -45 -55 0 -90 29 -22
35 -32 31 -54 -3 -14 -8 -42 -12 -63 l-7 -36 55 -12 54 -13 12 -53 c14 -60 21
-64 90 -39 l41 14 32 -39 c17 -22 39 -40 48 -40 9 0 31 18 48 40 l32 39 41
-14 c69 -25 76 -21 90 39 l12 53 54 13 55 12 -7 36 c-4 21 -9 49 -12 63 -4 22
2 32 31 54 45 35 45 55 0 90 -33 25 -36 31 -29 64 19 98 23 88 -38 101 l-54
13 -12 53 c-14 60 -21 64 -90 39 l-41 -14 -32 39 c-17 22 -39 40 -48 40 -9 0
-31 -18 -48 -40z m86 -37 l29 -36 44 12 c63 17 63 17 74 -36 10 -45 13 -48 50
-55 66 -14 65 -12 48 -68 l-15 -51 39 -35 38 -34 -38 -34 -39 -35 15 -51 c17
-56 18 -54 -48 -68 -37 -7 -40 -10 -50 -57 -5 -28 -15 -49 -20 -48 -6 1 -30 7
-54 14 l-43 12 -34 -39 -34 -39 -34 39 -34 39 -48 -13 c-27 -8 -51 -14 -54
-14 -3 -1 -10 21 -15 49 -10 47 -13 50 -50 57 -66 14 -65 12 -48 68 l15 51
-39 35 -38 34 38 34 39 35 -15 51 c-17 56 -18 54 48 68 37 7 40 10 50 57 5 27
12 49 15 49 3 0 27 -6 54 -14 l49 -13 29 36 c17 20 34 37 38 37 4 0 21 -17 38
-37z"/>
<path d="M560 535 l-84 -85 -51 50 c-56 55 -95 66 -95 27 0 -28 117 -147 145
-147 29 0 215 189 215 218 0 46 -42 26 -130 -63z"/>
</g>
</svg>
