<?xml version="1.0" standalone="no"?>
<!DOCTYPE svg PUBLIC "-//W3C//DTD SVG 20010904//EN"
 "http://www.w3.org/TR/2001/REC-SVG-20010904/DTD/svg10.dtd">
<svg version="1.0" xmlns="http://www.w3.org/2000/svg"
 width="64.000000pt" height="64.000000pt" viewBox="0 0 64.000000 64.000000"
 preserveAspectRatio="xMidYMid meet">
<metadata>
Created by potrace 1.15, written by Peter Selinger 2001-2017
</metadata>
<g transform="translate(0.000000,64.000000) scale(0.100000,-0.100000)"
fill="#000000" stroke="none">
<path d="M280 550 l0 -70 -120 0 -120 0 0 -200 0 -200 280 0 280 0 0 200 0
200 -120 0 -120 0 0 70 0 70 -40 0 -40 0 0 -70z m60 -85 c0 -137 6 -155 38
-123 6 6 15 8 19 4 4 -3 -12 -26 -35 -49 l-42 -42 -42 42 c-23 23 -39 46 -35
49 4 4 13 2 19 -4 32 -32 38 -14 38 123 0 128 1 135 20 135 19 0 20 -7 20
-135z m-60 -44 c0 -34 -2 -38 -20 -34 -24 6 -60 -22 -60 -46 0 -20 100 -121
119 -121 21 0 121 100 121 121 0 24 -36 52 -60 46 -18 -4 -20 0 -20 34 l0 40
108 -3 107 -3 0 -175 0 -175 -255 0 -255 0 -3 165 c-1 90 0 170 2 177 4 9 34
13 111 13 l105 0 0 -39z"/>
</g>
</svg>
