<?xml version="1.0" standalone="no"?>
<!DOCTYPE svg PUBLIC "-//W3C//DTD SVG 20010904//EN"
 "http://www.w3.org/TR/2001/REC-SVG-20010904/DTD/svg10.dtd">
<svg version="1.0" xmlns="http://www.w3.org/2000/svg"
 width="64.000000pt" height="64.000000pt" viewBox="0 0 64.000000 64.000000"
 preserveAspectRatio="xMidYMid meet">
<metadata>
Created by potrace 1.15, written by Peter Selinger 2001-2017
</metadata>
<g transform="translate(0.000000,64.000000) scale(0.100000,-0.100000)"
fill="#000000" stroke="none">
<path d="M90 563 c-46 -32 -85 -63 -87 -70 -2 -6 21 -31 51 -56 l55 -45 -55
-47 c-30 -26 -53 -52 -51 -59 2 -6 28 -28 58 -49 48 -33 55 -43 59 -79 5 -40
8 -43 95 -95 50 -29 97 -53 105 -53 8 0 56 24 105 53 88 52 90 54 93 94 3 37
8 45 52 73 82 53 83 56 20 112 l-55 49 53 47 c29 26 52 52 52 59 0 14 -171
123 -192 123 -9 0 -41 -21 -72 -46 l-56 -46 -54 46 c-30 25 -63 46 -73 46 -11
0 -57 -26 -103 -57z m169 -27 c36 -29 99 -74 140 -99 l73 -46 -53 -34 c-30
-19 -64 -39 -76 -46 -26 -13 -31 -11 -120 46 l-54 34 49 33 c27 18 57 36 66
39 9 4 16 13 16 22 0 22 -31 19 -37 -4 -3 -11 -11 -17 -18 -15 -7 3 -34 -8
-60 -25 l-48 -30 -48 40 -49 41 73 48 c39 27 74 49 76 49 2 1 34 -23 70 -53z
m269 5 l74 -48 -49 -41 -49 -41 -78 47 -77 47 48 42 c26 24 50 42 53 42 3 0
38 -22 78 -48z m-320 -213 c37 -23 71 -44 75 -48 5 -4 -14 -26 -41 -49 l-50
-41 -77 50 -77 51 49 39 c26 22 49 39 51 40 1 0 33 -19 70 -42z m344 3 l49
-40 -76 -51 -75 -51 -50 42 c-28 23 -48 44 -46 46 5 5 140 91 145 92 2 1 25
-17 53 -38z m-172 -126 c58 -48 69 -51 102 -34 17 9 19 8 16 -7 -2 -11 -42
-42 -90 -72 l-88 -54 -86 52 c-81 49 -105 73 -90 87 3 4 12 1 18 -5 20 -20 46
-13 87 23 23 21 42 32 46 25 8 -13 45 -13 45 0 0 5 -8 14 -17 19 -10 6 -13 11
-8 11 6 0 35 -20 65 -45z"/>
</g>
</svg>
