<?xml version="1.0" standalone="no"?>
<!DOCTYPE svg PUBLIC "-//W3C//DTD SVG 20010904//EN"
 "http://www.w3.org/TR/2001/REC-SVG-20010904/DTD/svg10.dtd">
<svg version="1.0" xmlns="http://www.w3.org/2000/svg"
 width="64.000000pt" height="64.000000pt" viewBox="0 0 64.000000 64.000000"
 preserveAspectRatio="xMidYMid meet">
<metadata>
Created by potrace 1.15, written by Peter Selinger 2001-2017
</metadata>
<g transform="translate(0.000000,64.000000) scale(0.100000,-0.100000)"
fill="#000000" stroke="none">
<path d="M40 340 l0 -240 280 0 280 0 0 240 0 240 -280 0 -280 0 0 -240z m535
0 l0 -215 -255 0 -255 0 -3 168 -2 167 210 0 c133 0 210 4 210 10 0 6 -77 10
-210 10 l-210 0 0 33 c0 19 3 37 7 41 4 3 119 5 257 4 l251 -3 0 -215z"/>
<path d="M500 395 c-19 -19 -40 -35 -47 -35 -21 0 -63 31 -63 46 0 9 -11 14
-30 14 -23 0 -30 -5 -30 -19 0 -22 -54 -71 -78 -71 -33 0 -62 13 -62 26 0 9
-11 14 -30 14 -19 0 -30 -5 -30 -14 0 -8 -11 -23 -25 -34 -46 -36 -27 -56 25
-26 33 20 100 12 100 -11 0 -10 10 -15 30 -15 23 0 30 5 30 19 0 21 53 71 76
71 22 0 64 -30 64 -46 0 -9 11 -14 30 -14 22 0 30 5 30 18 0 10 16 33 35 52
36 35 45 60 22 60 -7 0 -28 -16 -47 -35z"/>
<path d="M320 230 c0 -40 -4 -70 -10 -70 -5 0 -10 14 -10 30 0 28 -2 30 -40
30 -38 0 -40 -2 -40 -30 0 -16 -4 -30 -10 -30 -5 0 -10 23 -10 50 l0 50 -40 0
-40 0 0 -50 c0 -27 -4 -50 -10 -50 -5 0 -10 -4 -10 -10 0 -6 77 -10 210 -10
133 0 210 4 210 10 0 6 -4 10 -10 10 -5 0 -10 18 -10 40 l0 40 -40 0 -40 0 0
-40 c0 -22 -4 -40 -10 -40 -6 0 -10 30 -10 70 l0 70 -40 0 -40 0 0 -70z"/>
</g>
</svg>
