<?xml version="1.0" standalone="no"?>
<!DOCTYPE svg PUBLIC "-//W3C//DTD SVG 20010904//EN"
 "http://www.w3.org/TR/2001/REC-SVG-20010904/DTD/svg10.dtd">
<svg version="1.0" xmlns="http://www.w3.org/2000/svg"
 width="100.000000pt" height="100.000000pt" viewBox="0 0 100.000000 100.000000"
 preserveAspectRatio="xMidYMid meet">
<metadata>
Created by potrace 1.15, written by Peter Selinger 2001-2017
</metadata>
<g transform="translate(0.000000,100.000000) scale(0.100000,-0.100000)"
fill="#000000" stroke="none">
<path d="M162 918 c-9 -9 -12 -114 -12 -409 0 -219 3 -404 6 -413 5 -12 21
-16 75 -16 67 0 69 1 69 25 0 23 -3 25 -50 25 l-50 0 0 375 0 375 295 0 295 0
0 -375 0 -375 -130 0 -130 0 0 -25 0 -26 153 3 152 3 3 414 c2 325 0 416 -10
423 -22 13 -652 10 -666 -4z"/>
<path d="M290 665 l0 -25 205 0 205 0 0 25 0 25 -205 0 -205 0 0 -25z"/>
<path d="M290 545 l0 -25 205 0 205 0 0 25 0 25 -205 0 -205 0 0 -25z"/>
<path d="M380 400 c-8 -5 -23 -11 -33 -14 -9 -3 -20 -14 -24 -23 -3 -10 -13
-26 -20 -35 -12 -14 -13 -26 -4 -68 6 -28 11 -91 11 -141 0 -104 10 -116 64
-75 19 14 38 26 42 26 4 0 22 -12 41 -26 53 -40 60 -31 66 98 4 62 9 127 13
144 4 21 1 36 -10 47 -9 8 -16 23 -16 32 0 9 -12 18 -30 22 -17 3 -33 10 -36
14 -7 11 -44 11 -64 -1z"/>
</g>
</svg>
