<?xml version="1.0" standalone="no"?>
<!DOCTYPE svg PUBLIC "-//W3C//DTD SVG 20010904//EN"
 "http://www.w3.org/TR/2001/REC-SVG-20010904/DTD/svg10.dtd">
<svg version="1.0" xmlns="http://www.w3.org/2000/svg"
 width="128.000000pt" height="128.000000pt" viewBox="0 0 128.000000 128.000000"
 preserveAspectRatio="xMidYMid meet">
<metadata>
Created by potrace 1.15, written by Peter Selinger 2001-2017
</metadata>
<g transform="translate(0.000000,128.000000) scale(0.100000,-0.100000)"
fill="#000000" stroke="none">
<path d="M560 1200 l0 -80 -168 0 c-117 0 -172 -4 -180 -12 -20 -20 -15 -86 8
-100 20 -13 20 -24 20 -470 l0 -458 -40 0 c-33 0 -40 -3 -40 -20 0 -20 7 -20
480 -20 473 0 480 0 480 20 0 17 -7 20 -40 20 l-40 0 0 458 c0 446 0 457 20
470 23 14 28 80 8 100 -8 8 -67 12 -200 12 l-188 0 0 50 c0 43 -3 50 -20 50
-17 0 -20 -7 -20 -50 0 -43 -3 -50 -20 -50 -18 0 -20 7 -20 80 0 73 -2 80 -20
80 -18 0 -20 -7 -20 -80z m465 -140 c0 -13 -50 -15 -379 -18 -223 -1 -384 2
-389 7 -28 28 11 31 386 29 332 -3 382 -5 382 -18z m-25 -460 l0 -400 -140 0
c-116 0 -140 2 -140 15 0 21 -32 35 -80 35 -48 0 -80 -14 -80 -35 0 -13 -24
-15 -140 -15 l-140 0 0 360 0 360 270 0 c263 0 270 0 270 20 0 20 -7 20 -270
20 -263 0 -270 0 -270 20 0 20 7 20 360 20 l360 0 0 -400z m-440 -480 l0 -40
-140 0 -140 0 0 40 0 40 140 0 140 0 0 -40z m440 0 l0 -40 -140 0 -140 0 0 40
0 40 140 0 140 0 0 -40z"/>
</g>
</svg>
