<?xml version="1.0" standalone="no"?>
<!DOCTYPE svg PUBLIC "-//W3C//DTD SVG 20010904//EN"
 "http://www.w3.org/TR/2001/REC-SVG-20010904/DTD/svg10.dtd">
<svg version="1.0" xmlns="http://www.w3.org/2000/svg"
 width="40.000000pt" height="40.000000pt" viewBox="0 0 40.000000 40.000000"
 preserveAspectRatio="xMidYMid meet">
<metadata>
Created by potrace 1.15, written by Peter Selinger 2001-2017
</metadata>
<g transform="translate(0.000000,40.000000) scale(0.100000,-0.100000)"
fill="#000000" stroke="none">
<path d="M20 381 c0 -5 11 -86 25 -181 14 -95 25 -176 25 -181 0 -5 58 -9 130
-9 72 0 130 4 130 9 0 5 11 86 25 181 14 95 25 176 25 181 0 5 -79 9 -180 9
-101 0 -180 -4 -180 -9z m340 -51 c0 -14 -30 -221 -35 -248 -5 -21 -9 -22
-125 -22 -116 0 -120 1 -125 23 -5 26 -35 233 -35 247 0 6 63 10 160 10 97 0
160 -4 160 -10z"/>
</g>
</svg>
