<?xml version="1.0" standalone="no"?>
<!DOCTYPE svg PUBLIC "-//W3C//DTD SVG 20010904//EN"
 "http://www.w3.org/TR/2001/REC-SVG-20010904/DTD/svg10.dtd">
<svg version="1.0" xmlns="http://www.w3.org/2000/svg"
 width="104.000000pt" height="104.000000pt" viewBox="0 0 104.000000 104.000000"
 preserveAspectRatio="xMidYMid meet">
<metadata>
Created by potrace 1.15, written by Peter Selinger 2001-2017
</metadata>
<g transform="translate(0.000000,104.000000) scale(0.100000,-0.100000)"
fill="#000000" stroke="none">
<path d="M505 1016 c-93 -43 -144 -129 -152 -257 l-6 -79 67 0 66 0 0 48 c0
71 17 117 55 151 47 41 95 49 153 25 60 -25 92 -82 92 -166 l0 -58 66 0 67 0
-6 79 c-12 182 -109 281 -277 281 -58 0 -87 -6 -125 -24z"/>
<path d="M305 640 c-11 -4 -31 -20 -45 -35 l-25 -27 -3 -236 c-4 -353 -28
-334 413 -330 l315 3 32 33 33 32 3 235 c3 260 -1 285 -57 318 -26 15 -64 17
-338 16 -169 0 -317 -4 -328 -9z m375 -220 c25 -25 26 -74 1 -99 -14 -14 -21
-37 -23 -78 -3 -54 -5 -58 -28 -58 -24 0 -25 3 -28 61 -2 46 -8 66 -22 79 -44
39 -10 115 50 115 17 0 39 -9 50 -20z"/>
</g>
</svg>
