<?xml version="1.0" standalone="no"?>
<!DOCTYPE svg PUBLIC "-//W3C//DTD SVG 20010904//EN"
 "http://www.w3.org/TR/2001/REC-SVG-20010904/DTD/svg10.dtd">
<svg version="1.0" xmlns="http://www.w3.org/2000/svg"
 width="663.000000pt" height="749.000000pt" viewBox="0 0 663.000000 749.000000"
 preserveAspectRatio="xMidYMid meet">
<metadata>
Created by potrace 1.15, written by Peter Selinger 2001-2017
</metadata>
<g transform="translate(0.000000,749.000000) scale(0.100000,-0.100000)"
fill="#000000" stroke="none">
<path d="M1113 7033 c-61 -21 -136 -92 -164 -155 l-24 -53 0 -2740 0 -2740 23
-46 c31 -64 85 -117 151 -148 55 -25 62 -26 288 -29 l232 -3 3 -307 c3 -340 5
-347 70 -393 45 -32 132 -37 175 -10 17 11 97 96 178 190 81 94 148 171 150
171 2 0 69 -77 150 -171 81 -94 161 -179 178 -190 43 -27 130 -22 175 10 65
46 67 53 70 393 l3 308 1282 2 1282 3 52 24 c59 26 133 99 160 157 17 37 18
158 18 2779 l0 2740 -28 57 c-16 32 -48 75 -73 97 -88 77 104 71 -2223 70
-1825 0 -2091 -2 -2128 -16z m4127 -2943 l0 -2640 -1234 0 -1234 0 -4 80 -3
80 46 55 c186 226 238 525 139 798 -76 208 -253 390 -458 469 -312 122 -649
47 -879 -195 -83 -87 -134 -169 -173 -274 -98 -272 -47 -571 136 -795 l44 -53
0 -82 0 -83 -185 0 -185 0 0 2640 0 2640 1995 0 1995 0 0 -2640z m-2877 -1459
c171 -67 290 -230 304 -416 23 -301 -254 -557 -549 -507 -250 42 -423 261
-405 512 13 188 134 346 317 415 57 22 78 25 170 22 79 -3 119 -9 163 -26z
m-338 -1236 c79 -19 262 -19 344 0 35 9 66 14 68 12 2 -2 2 -95 1 -207 l-3
-202 -67 80 c-73 85 -114 112 -173 112 -59 0 -100 -27 -172 -111 -36 -44 -68
-79 -70 -79 -1 0 -3 92 -3 205 0 113 3 205 8 205 4 -1 34 -7 67 -15z"/>
<path d="M1972 5943 c-111 -54 -110 -234 1 -287 32 -15 145 -16 1273 -16
l1237 0 42 25 c105 61 100 227 -8 279 -32 15 -145 16 -1274 16 -1126 0 -1241
-2 -1271 -17z"/>
<path d="M1984 5156 c-119 -52 -131 -219 -21 -286 31 -19 61 -20 1282 -20
1230 0 1251 0 1283 20 54 33 74 75 70 147 -3 53 -8 67 -33 94 -61 63 32 59
-1317 59 -1014 -1 -1239 -3 -1264 -14z"/>
<path d="M1996 4370 c-61 -19 -108 -85 -108 -155 0 -54 22 -96 69 -132 l36
-28 1236 -3 1236 -2 45 22 c115 58 123 203 17 282 l-28 21 -1237 2 c-680 1
-1250 -2 -1266 -7z"/>
<path d="M2013 3580 c-91 -22 -140 -101 -121 -196 10 -50 57 -100 107 -114 24
-8 427 -10 1268 -8 l1232 3 28 21 c102 76 99 216 -7 278 -35 21 -44 21 -1255
23 -671 0 -1235 -2 -1252 -7z"/>
<path d="M3268 2770 c-108 -57 -105 -231 5 -284 31 -14 98 -16 622 -16 521 0
591 2 621 16 49 23 77 68 82 129 6 70 -18 118 -73 150 l-42 25 -589 0 c-562
-1 -591 -2 -626 -20z"/>
</g>
</svg>
